<?xml version="1.0" encoding="iso-8859-1"?>
<!-- Generator: Adobe Illustrator 16.0.0, SVG Export Plug-In . SVG Version: 6.00 Build 0)  -->
<!DOCTYPE svg PUBLIC "-//W3C//DTD SVG 1.1//EN" "http://www.w3.org/Graphics/SVG/1.1/DTD/svg11.dtd">
<svg version="1.1" id="Capa_1" xmlns="http://www.w3.org/2000/svg" xmlns:xlink="http://www.w3.org/1999/xlink" x="0px" y="0px"
	 width="598.494px" height="598.494px" fill='currentColor' viewBox="0 0 598.494 598.494" style="enable-background:new 0 0 598.494 598.494;"
	 xml:space="preserve">
<g>
	<g>
		<path d="M574.238,180.981c-14.947-35.006-36.225-66.455-63.242-93.474c-27.018-27.019-58.466-48.298-93.471-63.247
			C381.279,8.783,342.782,0.791,303.103,0.509c-0.709-0.005-1.434-0.008-2.138-0.008c-39.698,0-78.299,7.768-114.732,23.086
			C151.072,38.372,119.428,59.53,92.18,86.473c-27.261,26.957-48.774,58.372-63.941,93.374
			C12.512,216.14,4.332,254.695,3.924,294.444c-0.4,39.119,6.665,77.108,21.01,113.049L1.577,528.263
			c-3.333,17.233,1.157,34.875,12.318,48.401c11.184,13.554,27.642,21.328,45.153,21.328c3.737,0,7.5-0.362,11.187-1.075
			l120.769-23.356c34.971,13.956,71.914,21.025,109.946,21.025c1.03,0,2.061-0.005,3.093-0.016
			c39.924-0.408,78.635-8.655,115.061-24.514c35.13-15.294,66.624-36.977,93.609-64.446c26.981-27.467,48.102-59.343,62.775-94.742
			c15.211-36.697,22.781-75.545,22.499-115.464C597.705,255.725,589.716,217.228,574.238,180.981z M303.607,551.734
			c-0.887,0.009-1.771,0.014-2.657,0.014c-35.829,0-69.926-7.416-100.842-20.791c-1.979-0.856-4.103-1.291-6.238-1.291
			c-0.998,0-1.998,0.095-2.987,0.286L62.098,554.859c-1.032,0.199-2.05,0.294-3.05,0.294c-9.612,0-17.33-8.832-15.411-18.755
			l24.908-128.785c0.601-3.106,0.251-6.321-1.005-9.226c-13.707-31.682-21.154-66.702-20.777-103.504
			C48.187,155.745,162.04,43.342,300.965,43.342c0.604,0,1.227,0.002,1.833,0.007c138.931,0.988,251.366,113.427,252.35,252.36
			C556.136,435.454,443.349,550.306,303.607,551.734z"/>
		<path d="M59.048,598.493c-17.661,0-34.26-7.84-45.539-21.51C2.252,563.34-2.276,545.548,1.086,528.168l23.33-120.627
			C10.087,371.592,3.024,333.539,3.424,294.438c0.408-39.814,8.603-78.435,24.355-114.79c15.192-35.06,36.741-66.529,64.048-93.531
			c27.295-26.99,58.992-48.183,94.211-62.991C222.534,7.782,261.201,0.001,300.965,0.001c0.705,0,1.431,0.003,2.141,0.008
			c39.745,0.282,78.308,8.287,114.616,23.792c35.064,14.974,66.565,36.289,93.628,63.353s48.376,58.566,63.349,93.631
			c15.503,36.306,23.507,74.869,23.788,114.616c0.282,39.985-7.3,78.898-22.537,115.659c-14.699,35.46-35.855,67.39-62.881,94.901
			c-27.03,27.516-58.578,49.234-93.767,64.554c-36.486,15.885-75.264,24.146-115.255,24.556
			c-39.077,0.396-77.164-6.673-113.093-20.991L70.329,597.409C66.609,598.127,62.813,598.493,59.048,598.493z M300.965,1.001
			c-39.63,0-78.167,7.754-114.538,23.047c-35.101,14.759-66.691,35.881-93.896,62.78c-27.216,26.912-48.692,58.275-63.833,93.217
			c-15.7,36.232-23.867,74.723-24.273,114.403c-0.399,39.018,6.658,76.99,20.975,112.858l0.054,0.137l-0.028,0.144L2.067,528.358
			c-3.304,17.087,1.147,34.577,12.213,47.988c11.089,13.439,27.406,21.146,44.768,21.146c3.702,0,7.434-0.358,11.092-1.066
			l120.913-23.384l0.136,0.054c34.9,13.928,71.829,20.99,109.761,20.99c1.028,0,2.057-0.005,3.088-0.016
			c39.856-0.407,78.503-8.641,114.866-24.472c35.069-15.269,66.512-36.915,93.452-64.339c26.935-27.42,48.021-59.242,62.67-94.583
			c15.186-36.637,22.743-75.419,22.461-115.27c-0.281-39.614-8.257-78.047-23.708-114.23
			c-14.922-34.947-36.164-66.343-63.136-93.316c-26.973-26.973-58.367-48.217-93.313-63.14
			C381.143,9.268,342.71,1.291,303.099,1.009C302.392,1.004,301.668,1.001,300.965,1.001z M59.048,555.653
			c-4.829,0-9.384-2.163-12.496-5.935c-3.089-3.744-4.331-8.634-3.406-13.415l24.908-128.785c0.584-3.022,0.248-6.11-0.974-8.933
			c-14.183-32.782-21.187-67.674-20.818-103.708c0.69-67.397,27.569-130.718,75.687-178.298
			c48.088-47.551,111.664-73.738,179.016-73.738c0.605,0,1.229,0.002,1.837,0.007c67.325,0.479,130.631,26.972,178.255,74.597
			c47.624,47.626,74.114,110.933,74.591,178.259c0.99,140.02-112.072,255.099-252.035,256.529
			c-36.006,0.349-70.943-6.646-103.703-20.818c-2.805-1.213-5.932-1.554-8.932-0.973L62.193,555.35
			C61.151,555.551,60.093,555.653,59.048,555.653z M300.965,43.842c-67.087,0-130.413,26.085-178.312,73.449
			c-47.929,47.394-74.703,110.465-75.39,177.597c-0.367,35.893,6.609,70.647,20.736,103.301c1.301,3.007,1.66,6.299,1.037,9.519
			L44.128,536.493c-0.868,4.487,0.297,9.076,3.196,12.589c2.921,3.541,7.194,5.571,11.724,5.571c0.981,0,1.976-0.096,2.955-0.285
			l128.785-24.907c3.196-0.615,6.53-0.256,9.519,1.037c32.63,14.116,67.419,21.111,103.295,20.736
			c139.413-1.425,252.031-116.051,251.045-255.522c-0.475-67.062-26.861-130.12-74.298-177.559
			c-47.438-47.438-110.494-73.827-177.556-74.304C302.189,43.844,301.568,43.842,300.965,43.842z"/>
	</g>
	<g>
		<path d="M428.73,173.09H172.22c-34.034,0-61.723,27.689-61.723,61.723c0,34.034,27.688,61.723,61.723,61.723h256.51
			c34.033,0,61.723-27.688,61.723-61.723C490.453,200.779,462.765,173.09,428.73,173.09z M428.73,253.695H172.22
			c-10.429,0-18.883-8.454-18.883-18.883c0-10.428,8.454-18.882,18.883-18.882h256.51c10.429,0,18.882,8.453,18.882,18.882
			S439.159,253.695,428.73,253.695z"/>
		<path d="M428.73,297.035H172.22c-34.31,0-62.223-27.913-62.223-62.223s27.913-62.223,62.223-62.223h256.51
			c34.31,0,62.223,27.913,62.223,62.223S463.04,297.035,428.73,297.035z M172.22,173.59c-33.758,0-61.223,27.464-61.223,61.223
			s27.464,61.223,61.223,61.223h256.51c33.759,0,61.223-27.464,61.223-61.223s-27.464-61.223-61.223-61.223H172.22z M428.73,254.195
			H172.22c-10.688,0-19.383-8.695-19.383-19.383s8.695-19.382,19.383-19.382h256.51c10.688,0,19.382,8.695,19.382,19.382
			S439.418,254.195,428.73,254.195z M172.22,216.43c-10.136,0-18.383,8.246-18.383,18.382s8.247,18.383,18.383,18.383h256.51
			c10.136,0,18.382-8.247,18.382-18.383s-8.246-18.382-18.382-18.382H172.22z"/>
	</g>
	<g>
		<path d="M319.533,318.223H172.22c-34.034,0-61.723,27.688-61.723,61.723c0,34.033,27.688,61.723,61.723,61.723h147.313
			c34.034,0,61.723-27.689,61.723-61.723C381.256,345.912,353.567,318.223,319.533,318.223z M319.533,398.829H172.22
			c-10.429,0-18.883-8.453-18.883-18.883c0-10.429,8.454-18.883,18.883-18.883h147.313c10.429,0,18.883,8.454,18.883,18.883
			S329.962,398.829,319.533,398.829z"/>
		<path d="M319.533,442.168H172.22c-34.31,0-62.223-27.913-62.223-62.223s27.913-62.223,62.223-62.223h147.313
			c34.31,0,62.223,27.913,62.223,62.223S353.843,442.168,319.533,442.168z M172.22,318.723c-33.758,0-61.223,27.465-61.223,61.223
			s27.464,61.223,61.223,61.223h147.313c33.758,0,61.223-27.465,61.223-61.223s-27.465-61.223-61.223-61.223H172.22z
			 M319.533,399.329H172.22c-10.688,0-19.383-8.695-19.383-19.383s8.695-19.383,19.383-19.383h147.313
			c10.688,0,19.383,8.695,19.383,19.383S330.221,399.329,319.533,399.329z M172.22,361.563c-10.136,0-18.383,8.246-18.383,18.383
			s8.247,18.383,18.383,18.383h147.313c10.137,0,18.383-8.246,18.383-18.383s-8.246-18.383-18.383-18.383H172.22z"/>
	</g>
</g>
<g>
</g>
<g>
</g>
<g>
</g>
<g>
</g>
<g>
</g>
<g>
</g>
<g>
</g>
<g>
</g>
<g>
</g>
<g>
</g>
<g>
</g>
<g>
</g>
<g>
</g>
<g>
</g>
<g>
</g>
</svg>
